<?xml version="1.0" standalone="no"?>
<!DOCTYPE svg PUBLIC "-//W3C//DTD SVG 1.1//EN" "http://www.w3.org/Graphics/SVG/1.1/DTD/svg11.dtd" >
<svg xmlns="http://www.w3.org/2000/svg">
<metadata>Generated by IcoMoon</metadata>
<defs>
<font id="icomoon" horiz-adv-x="1024">
<font-face units-per-em="1024" ascent="960" descent="-64" />
<missing-glyph horiz-adv-x="1024" />
<glyph unicode="&#x20;" horiz-adv-x="512" d="" />
<glyph unicode="&#xe900;" glyph-name="close" d="M1024 839.334l-120.668 120.666-391.333-391.333-391.332 391.333-120.666-120.666 391.333-391.332-391.333-391.333 120.666-120.668 391.332 391.332 391.333-391.332 120.663 120.668-391.327 391.333 391.332 391.332z" />
<glyph unicode="&#xe901;" glyph-name="bell" d="M575.315 862.183v34.116c0.349 34.848-27.627 63.37-62.464 63.698-34.847 0.328-63.348-27.66-63.654-62.507v-35.307c41.708 7.396 84.399 7.396 126.118 0zM512.256-63.994c64.976-0.026 119.127 49.747 124.567 114.496h-249.133c5.44-64.749 59.59-114.522 124.566-114.496zM834.56 327.35c0.685 0.044 1.363 0.153 2.029 0.306v172.010c0 181.372-145.318 328.912-324.399 328.912-179.067 0-324.401-147.54-324.401-328.912v-172.010c0.667-0.153 1.344-0.262 2.032-0.306h644.739zM189.222 288.205h646.112c39.36 0 71.258-31.91 71.258-71.258v-56.051c0-39.347-31.898-71.245-71.258-71.245h-646.112c-39.359 0-71.258 31.898-71.258 71.245v56.051c0 39.347 31.898 71.258 71.258 71.258z" />
<glyph unicode="&#xe902;" glyph-name="chat" d="M600.087 312.76c59.11 24.557 105.762 57.989 139.952 100.303 34.196 42.305 51.29 88.377 51.29 138.215 0 49.84-17.095 95.91-51.29 138.223-34.19 42.307-80.842 75.742-139.952 100.308-59.113 24.562-123.406 36.839-192.891 36.839-69.479 0-133.773-12.284-192.89-36.846-59.109-24.562-105.762-57.997-139.951-100.306-34.197-42.307-51.296-88.375-51.296-138.217 0-42.663 12.927-82.838 38.751-120.479 25.824-37.647 61.293-69.384 106.397-95.196-3.635-8.609-7.364-16.488-11.184-23.668-3.822-7.174-8.365-14.071-13.644-20.709-5.275-6.638-9.363-11.836-12.275-15.589-2.911-3.759-7.639-9.059-14.188-15.86-6.552-6.819-10.737-11.3-12.551-13.445 0 0.361-0.732-0.452-2.185-2.421-1.458-1.976-2.276-2.867-2.459-2.699-0.18 0.193-0.91-0.699-2.181-2.674-1.273-1.976-1.911-2.958-1.911-2.958l-1.367-2.68c-0.543-1.072-0.91-2.144-1.090-3.229-0.183-1.066-0.275-2.241-0.275-3.488 0-1.253 0.18-2.415 0.546-3.494 0.732-4.656 2.823-8.415 6.277-11.294 3.457-2.867 7.18-4.295 11.188-4.295h1.638c18.184 2.506 33.829 5.373 46.923 8.608 56.020 14.342 106.588 37.292 151.694 68.843 32.735-5.74 64.751-8.608 96.033-8.608 69.478-0.024 133.78 12.252 192.891 36.816zM294.798 357.656l-24.012-16.663c-10.186-6.808-21.456-13.813-33.828-20.987l19.102 45.185-52.928 30.118c-34.929 20.073-62.025 43.739-81.305 70.989-19.282 27.249-28.918 55.575-28.918 84.978 0 36.577 14.284 70.818 42.837 102.729 28.549 31.911 67.019 57.187 115.401 75.838 48.377 18.64 100.398 27.968 156.053 27.968s107.68-9.328 156.055-27.968c48.38-18.649 86.847-43.927 115.41-75.838 28.558-31.909 42.827-66.15 42.827-102.729 0-36.571-14.27-70.81-42.827-102.721-28.564-31.92-67.030-57.191-115.41-75.833-48.376-18.643-100.394-27.966-156.055-27.966-27.276 0-55.105 2.515-83.482 7.529l-28.92 5.371zM962.108 292.876c25.835 37.48 38.743 77.716 38.743 120.746 0 44.1-13.643 85.34-40.918 123.699-27.287 38.357-64.392 70.274-111.315 95.73 8.361-26.888 12.541-54.137 12.541-81.751 0-48.042-12.168-93.578-36.557-136.608-24.371-43.018-59.296-81.020-104.761-114.010-42.201-30.118-90.22-53.242-144.060-69.379-53.826-16.131-110.032-24.203-168.6-24.203-10.909 0-26.917 0.711-48.012 2.144 73.114-47.321 158.966-70.993 257.544-70.993 31.286 0 63.295 2.873 96.039 8.614 45.104-31.563 95.672-54.501 151.691-68.849 13.095-3.241 28.738-6.102 46.923-8.608 4.367-0.367 8.373 0.898 12.011 3.759 3.632 2.873 6.005 6.807 7.090 11.824-0.169 2.15 0 3.331 0.548 3.506 0.536 0.169 0.446 1.337-0.277 3.488-0.717 2.156-1.084 3.229-1.084 3.229l-1.361 2.68c-0.379 0.711-0.994 1.705-1.909 2.958-0.91 1.241-1.632 2.144-2.187 2.686-0.53 0.536-1.343 1.434-2.446 2.68-1.084 1.247-1.813 2.060-2.181 2.415-1.819 2.156-5.999 6.638-12.547 13.451-6.554 6.807-11.276 12.095-14.185 15.86s-7.005 8.957-12.276 15.601c-5.271 6.626-9.824 13.529-13.643 20.703-3.819 7.168-7.547 15.059-11.186 23.66 45.092 25.835 80.565 57.477 106.376 94.967z" />
<glyph unicode="&#xe903;" glyph-name="list-error" d="M604.911 639.069h-343.114c-14.976 0-27.117-11.966-27.117-26.727s12.141-26.727 27.117-26.727h343.114c14.973 0 27.113 11.966 27.113 26.727s-12.14 26.727-27.113 26.727zM604.911 535.972h-343.114c-14.976 0-27.117-11.967-27.117-26.728s12.141-26.727 27.117-26.727h343.114c14.973 0 27.113 11.967 27.113 26.727s-12.14 26.728-27.113 26.728zM604.911 428.757h-343.114c-14.976 0-27.117-11.966-27.117-26.727s12.141-26.727 27.117-26.727h343.114c14.973 0 27.113 11.966 27.113 26.727 0 14.759-12.14 26.727-27.113 26.727zM399.758 322.361h-137.962c-14.975 0-27.116-11.964-27.116-26.726s12.141-26.726 27.116-26.726h137.962c14.975 0 27.116 11.964 27.116 26.726s-12.142 26.726-27.116 26.726zM740.551 337.726v490.036c0 41.548-34.293 75.349-76.442 75.349h-358.352c-7.324 0-14.225-2.8-19.517-7.966l-152.007-149.771c-5.216-5.139-8.087-11.973-8.087-19.241v-535.402c0-41.552 34.293-75.349 76.446-75.349h342.626c22.137-70.849 89.167-122.493 168.214-122.493 97.035 0 175.974 77.807 175.974 173.449 0.006 86.551-64.649 158.498-148.855 171.389zM278.643 812.076v-59.218h-60.101l60.101 59.218zM537.497 168.835h-334.903c-12.249 0-22.214 9.819-22.214 21.897v508.673h125.377c14.976 0 27.117 11.966 27.117 26.727 0 0.21-0.027 0.414-0.032 0.622 0.005 0.208 0.032 0.412 0.032 0.622v122.281h331.236c12.248 0 22.215-9.82 22.215-21.895v-490.036c-83.393-12.765-147.596-83.455-148.828-168.891zM713.438 46.342c-67.129 0-121.742 53.828-121.742 119.996s54.613 119.996 121.742 119.996c67.129 0 121.742-53.828 121.742-119.996s-54.613-119.996-121.742-119.996zM713.438 260.75c-14.979 0-27.119-11.964-27.119-26.726v-67.686c0-14.757 12.14-26.726 27.119-26.726 14.973 0 27.113 11.969 27.113 26.726v67.686c0 14.763-12.14 26.726-27.113 26.726zM740.415 98.236c-0.091 0.853-0.216 1.729-0.398 2.583-0.165 0.853-0.381 1.712-0.654 2.549-0.25 0.819-0.563 1.655-0.882 2.458-0.347 0.802-0.722 1.604-1.138 2.372-0.415 0.762-0.87 1.513-1.36 2.241-0.489 0.734-1.030 1.428-1.593 2.105-0.558 0.677-1.155 1.337-1.786 1.957-0.614 0.609-1.286 1.212-1.968 1.764-0.688 0.558-1.411 1.070-2.15 1.553-0.722 0.484-1.502 0.944-2.281 1.354s-1.587 0.785-2.401 1.104c-0.814 0.336-1.65 0.643-2.497 0.893-0.853 0.245-1.701 0.461-2.566 0.637-0.87 0.165-1.758 0.307-2.64 0.393-1.769 0.182-3.561 0.182-5.33 0-0.87-0.085-1.758-0.228-2.623-0.393-0.87-0.176-1.735-0.387-2.583-0.637-0.853-0.25-1.684-0.558-2.497-0.893-0.814-0.319-1.627-0.694-2.401-1.104-0.779-0.41-1.542-0.87-2.281-1.354s-1.468-0.996-2.133-1.553c-0.705-0.552-1.36-1.155-1.991-1.764-0.637-0.62-1.229-1.28-1.792-1.957-0.558-0.677-1.081-1.371-1.587-2.105-0.489-0.728-0.944-1.479-1.36-2.241-0.415-0.768-0.791-1.57-1.115-2.372-0.347-0.802-0.654-1.638-0.905-2.458-0.256-0.836-0.472-1.695-0.654-2.549-0.176-0.853-0.307-1.729-0.398-2.583-0.085-0.87-0.125-1.764-0.125-2.634 0-0.876 0.040-1.746 0.125-2.623 0.091-0.87 0.222-1.746 0.398-2.6 0.182-0.853 0.398-1.712 0.654-2.532 0.25-0.836 0.558-1.655 0.905-2.458 0.324-0.819 0.705-1.604 1.115-2.367 0.415-0.768 0.87-1.536 1.36-2.247 0.506-0.728 1.030-1.445 1.587-2.122 0.563-0.677 1.161-1.337 1.792-1.94 0.631-0.626 1.286-1.212 1.991-1.764 0.666-0.552 1.394-1.087 2.133-1.57 0.74-0.478 1.502-0.922 2.281-1.337 0.774-0.41 1.587-0.779 2.401-1.121 0.814-0.319 1.644-0.626 2.497-0.87 0.848-0.267 1.712-0.484 2.583-0.643 0.865-0.176 1.752-0.302 2.623-0.393 0.882-0.091 1.786-0.142 2.668-0.142 0.887 0 1.775 0.051 2.662 0.142 0.882 0.085 1.769 0.21 2.64 0.393 0.865 0.159 1.712 0.375 2.566 0.643 0.848 0.245 1.678 0.552 2.492 0.87 0.814 0.341 1.627 0.711 2.406 1.121 0.779 0.415 1.553 0.859 2.276 1.337 0.745 0.484 1.468 1.018 2.156 1.57 0.683 0.552 1.354 1.138 1.968 1.764 0.631 0.603 1.229 1.263 1.786 1.94 0.563 0.677 1.104 1.394 1.593 2.122 0.489 0.711 0.939 1.479 1.354 2.247 0.415 0.762 0.796 1.547 1.138 2.367 0.324 0.802 0.637 1.621 0.887 2.458 0.267 0.819 0.489 1.678 0.649 2.532 0.182 0.853 0.307 1.729 0.398 2.6 0.091 0.876 0.148 1.746 0.148 2.623 0 0.87-0.051 1.764-0.142 2.634z" />
<glyph unicode="&#xe904;" glyph-name="edit" d="M810.664 446.029c-23.594 0-42.664-19.117-42.664-42.664v-341.336c0-23.509-19.117-42.667-42.664-42.667h-597.336c-23.555 0-42.664 19.157-42.664 42.667v597.336c0 23.508 19.11 42.664 42.664 42.664h341.336c23.594 0 42.664 19.117 42.664 42.664 0 23.555-19.070 42.672-42.664 42.672h-341.336c-70.57 0-128-57.43-128-128v-597.336c0-70.571 57.43-128 128-128h597.336c70.571 0 127.997 57.429 127.997 128v341.336c0 23.594-19.075 42.664-42.669 42.664zM399.996 484.901c-2.984-2.984-4.992-6.781-5.844-10.875l-30.164-150.874c-1.406-6.992 0.812-14.204 5.844-19.282 4.054-4.054 9.516-6.226 15.109-6.226 1.359 0 2.773 0.125 4.18 0.422l150.828 30.164c4.18 0.859 7.976 2.859 10.922 5.851l337.577 337.578-150.827 150.821-337.626-337.579zM992.768 926.799c-41.591 41.602-109.261 41.602-150.825 0l-59.047-59.047 150.83-150.828 59.042 59.055c20.147 20.093 31.241 46.891 31.241 75.39s-11.093 55.297-31.241 75.43z" />
<glyph unicode="&#xe905;" glyph-name="facebook" d="M767.96 959.787l-132.79 0.213c-149.181 0-245.59-98.912-245.59-252.005v-116.191h-133.513c-11.537 0-20.879-9.353-20.879-20.891v-168.348c0-11.539 9.353-20.88 20.879-20.88h133.513v-424.795c0-11.537 9.342-20.878 20.879-20.878h174.199c11.537 0 20.878 9.353 20.878 20.878v424.795h156.109c11.537 0 20.878 9.341 20.878 20.88l0.063 168.348c0 5.54-2.202 10.845-6.116 14.765-3.908 3.921-9.233 6.126-14.774 6.126h-156.16v98.497c0 47.341 11.281 71.375 72.949 71.375l89.452 0.032c11.526 0 20.873 9.353 20.873 20.879v156.321c0 11.516-9.335 20.858-20.85 20.88z" />
<glyph unicode="&#xe906;" glyph-name="like-1" d="M1007.126 488.806c0 51.93-42.247 94.176-94.179 94.176h-170.752c26.448 47.871 40.507 93.050 40.507 155.448v10.084c0 0.006 0 0.010 0 0.016-0.007 33.564-12.983 65.214-36.535 89.118-23.536 23.89-54.962 37.338-88.487 37.862-0.32 0.004-0.642 0.008-0.963 0.008-32.494 0-60.91-25.844-63.578-58.046-12.722-153.562-160.692-232.698-259.67-280.83v15.89c0 16.6-13.458 30.056-30.057 30.056h-256.482c-16.6 0-30.056-13.458-30.056-30.056v-512.962c0-16.596 13.458-30.054 30.056-30.054h192.36c36.844 0 68.792 21.277 84.258 52.18 107.048-46.497 200.048-52.553 306.848-52.553 18.242 0 36.904 0.176 56.092 0.358 21.218 0.197 43.158 0.41 66.158 0.41h95.027c51.931 0 94.179 42.247 94.179 94.171 0 17.459-4.776 33.829-13.093 47.857 27.063 16.568 45.151 46.4 45.151 80.384 0 17.46-4.776 33.824-13.085 47.858 27.056 16.566 45.144 46.398 45.144 80.382 0 24.456-9.37 46.758-24.708 63.517 16.004 16.892 25.863 39.673 25.863 64.726zM273.355 103.695c0-18.783-15.28-34.063-34.064-34.063h-34.064v98.182c0 16.6-13.458 30.056-30.056 30.056s-30.057-13.458-30.057-30.056v-98.182h-68.126v452.846h196.368v-418.783h-0.001zM848.83 394.63h62.969c18.783 0 34.063-15.28 34.063-34.064s-15.28-34.064-34.063-34.064h-62.969c-16.603 0-30.062-13.458-30.062-30.056s13.458-30.056 30.062-30.056h30.91c18.783 0 34.063-15.28 34.063-34.064s-15.28-34.064-34.063-34.064h-32.066c-16.596 0-30.054-13.458-30.054-30.056 0-16.595 13.458-30.054 30.054-30.054 18.783 0 34.070-15.28 34.070-34.070 0-18.783-15.287-34.063-34.070-34.063h-95.027c-23.284 0-45.368-0.205-66.726-0.41-133.985-1.265-232.42-2.202-352.059 53.35v347.107h-0.001c3.128 1.512 6.338 3.062 9.612 4.64 52.25 25.192 123.808 59.692 185.336 111.946 75.322 63.972 117.124 139.962 124.238 225.858 0.084 1.020 2.044 2.898 3.658 2.898 0.010 0 0.022 0 0.032 0 36.312-0.568 65.853-30.586 65.853-66.914v-10.064c0-62.48-16.293-102.012-50.376-155.448h-47.808c-16.601 0-30.057-13.458-30.057-30.056 0-16.6 13.458-30.056 30.057-30.056h64.334c0.030 0 0.060 0 0.090 0h224.116c18.783 0 34.063-15.28 34.063-34.064s-15.28-34.064-34.063-34.064h-64.117c-16.603 0-30.062-13.458-30.062-30.056 0-16.6 13.458-30.058 30.062-30.058z" />
<glyph unicode="&#xe907;" glyph-name="dislike-1" d="M1007.126 407.192c0-51.93-42.247-94.177-94.179-94.177h-170.752c26.448-47.87 40.507-93.049 40.507-155.448v-10.083c0-0.007 0-0.015 0-0.015-0.007-33.565-12.983-65.214-36.535-89.117-23.536-23.896-54.962-37.339-88.487-37.866-0.32 0-0.642-0.007-0.963-0.007-32.494 0-60.91 25.841-63.578 58.046-12.722 153.562-160.692 232.697-259.67 280.83v-15.89c0-16.6-13.458-30.056-30.057-30.056h-256.482c-16.6 0-30.056 13.458-30.056 30.056v512.96c0 16.598 13.458 30.056 30.056 30.056h192.36c36.844 0 68.792-21.278 84.258-52.182 107.048 46.5 200.048 52.556 306.848 52.556 18.242 0 36.904-0.176 56.092-0.358 21.218-0.2 43.158-0.408 66.158-0.408h95.027c51.931 0 94.179-42.248 94.179-94.176 0-17.46-4.776-33.824-13.093-47.858 27.063-16.566 45.151-46.398 45.151-80.382 0-17.46-4.776-33.824-13.085-47.858 27.056-16.566 45.144-46.398 45.144-80.383 0-24.455-9.37-46.757-24.708-63.516 16.004-16.892 25.863-39.674 25.863-64.726zM273.355 792.304c0 18.784-15.28 34.064-34.064 34.064h-34.064v-98.184c0-16.6-13.458-30.056-30.056-30.056s-30.057 13.458-30.057 30.056v98.184h-68.126v-452.848h196.368v418.784h-0.001zM848.83 501.368h62.969c18.783 0 34.063 15.28 34.063 34.064s-15.28 34.064-34.063 34.064h-62.969c-16.603 0-30.062 13.458-30.062 30.056s13.458 30.056 30.062 30.056h30.91c18.783 0 34.063 15.28 34.063 34.064s-15.28 34.064-34.063 34.064h-32.066c-16.596 0-30.054 13.458-30.054 30.056s13.458 30.056 30.054 30.056c18.783 0 34.070 15.28 34.070 34.064s-15.287 34.064-34.070 34.064h-95.027c-23.284 0-45.368 0.208-66.726 0.412-133.985 1.266-232.42 2.202-352.059-53.348v-347.11h-0.001c3.128-1.512 6.338-3.062 9.612-4.64 52.25-25.192 123.808-59.692 185.336-111.946 75.322-63.972 117.124-139.962 124.238-225.859 0.084-1.017 2.044-2.896 3.658-2.896 0.010 0 0.022 0 0.032 0 36.312 0.571 65.853 30.588 65.853 66.911v10.066c0 62.48-16.293 102.012-50.376 155.448h-47.808c-16.601 0-30.057 13.458-30.057 30.056 0 16.6 13.458 30.056 30.057 30.056h64.334c0.030 0 0.060 0 0.090 0h224.116c18.783 0 34.063 15.28 34.063 34.064s-15.28 34.064-34.063 34.064h-64.117c-16.603 0-30.062 13.458-30.062 30.056 0 16.6 13.458 30.058 30.062 30.058z" />
<glyph unicode="&#xe908;" glyph-name="present" d="M960 673.256h-202.496c14.528 9.92 27.008 19.776 35.712 28.608 51.584 51.904 51.584 136.385 0 188.288-50.112 50.432-137.536 50.496-187.712 0-27.712-27.84-101.376-141.184-91.2-216.896h-4.608c10.112 75.712-63.488 189.056-91.2 216.896-50.176 50.496-137.6 50.432-187.712 0-51.584-51.904-51.584-136.384-0.064-188.288 8.768-8.832 21.248-18.688 35.776-28.608h-202.496c-35.264 0-64-28.736-64-64v-160c0-17.664 14.336-32 32-32h32v-384.001c0-35.264 28.736-64 64-64h768c35.264 0 64 28.736 64 64v384.001h32c17.664 0 32 14.336 32 32v160c0 35.264-28.736 64-64 64zM276.16 845.032c12.992 13.056 30.208 20.224 48.512 20.224 18.24 0 35.456-7.168 48.448-20.224 43.136-43.392 86.016-154.24 71.104-169.664 0 0-2.688-2.112-11.84-2.112-44.224 0-128.64 45.952-156.224 73.728-26.816 27.008-26.816 71.041 0 98.048zM480 33.254h-352v384.001h352v-384.001zM480 481.256h-416v128h416v-128zM650.88 845.032c25.984 26.048 71.040 25.984 96.96 0 26.816-27.007 26.816-71.040 0-98.048-27.584-27.776-112-73.728-156.224-73.728-9.152 0-11.84 2.048-11.904 2.112-14.848 15.424 28.032 126.272 71.168 169.664zM896 33.254h-352v384.001h352v-384.001zM960 481.256h-416v128h416v-128z" />
<glyph unicode="&#xe909;" glyph-name="clock" d="M512.061 960c-282.311 0-511.999-229.691-511.999-511.999 0-282.312 229.688-512.001 511.999-512.001 282.326 0 511.996 229.69 511.996 512.001 0 282.308-229.67 511.999-511.996 511.999zM512.061 20.365c-235.806 0-427.637 191.827-427.637 427.634 0 235.8 191.831 427.636 427.637 427.636 235.804 0 427.631-191.837 427.631-427.636 0-235.807-191.827-427.634-427.631-427.634zM554.177 464.755v289.954c0 23.294-18.885 42.182-42.179 42.182-23.292 0-42.177-18.888-42.177-42.182v-306.714c0-13.098 6.090-24.634 15.437-32.378 0.396-0.476 0.663-1.009 1.075-1.478l158.18-179.604c8.339-9.446 19.974-14.291 31.667-14.291 9.888 0 19.846 3.456 27.853 10.528 17.491 15.405 19.174 42.054 3.782 59.539l-153.638 174.444z" />
<glyph unicode="&#xe90a;" glyph-name="info" d="M512 960c-282.317 0-512-229.686-512-512.003 0-282.314 229.683-511.997 512-511.997s512 229.683 512 511.997c0 282.317-229.683 512.003-512 512.003zM512 29.088c-230.989 0-418.909 187.923-418.909 418.909s187.919 418.912 418.909 418.912 418.912-187.925 418.912-418.912c0-230.986-187.923-418.909-418.912-418.909zM511.994 742.789c-34.214 0-62.048-27.853-62.048-62.088 0-34.205 27.834-62.033 62.048-62.033s62.048 27.828 62.048 62.033c0 34.236-27.834 62.088-62.048 62.088zM511.999 525.578c-25.706 0-46.545-20.84-46.545-46.545v-279.276c0-25.702 20.84-46.541 46.545-46.541s46.545 20.838 46.545 46.541v279.276c0 25.705-20.84 46.545-46.545 46.545z" />
<glyph unicode="&#xe90b;" glyph-name="instagram" d="M704 960h-384c-176.704 0-320-143.296-320-320v-384c0-176.703 143.296-320 320-320h384c176.703 0 320 143.297 320 320v384c0 176.704-143.297 320-320 320zM928 256c0-123.523-100.477-224-224-224h-384c-123.52 0-224 100.477-224 224v384c0 123.52 100.48 224 224 224h384c123.523 0 224-100.48 224-224v-384zM512 704c-141.376 0-256-114.624-256-256s114.624-256 256-256c141.375 0 256 114.625 256 256s-114.625 256-256 256zM512 288c-88.192 0-160 71.805-160 160 0 88.256 71.808 160 160 160 88.195 0 160-71.744 160-160 0-88.195-71.805-160-160-160zM787.2 689.11c18.842 0 34.116 15.272 34.116 34.112s-15.275 34.112-34.116 34.112c-18.836 0-34.111-15.272-34.111-34.112s15.275-34.112 34.111-34.112z" />
<glyph unicode="&#xe90c;" glyph-name="like-2" d="M1007.121 415.663c0 51.93-42.246 94.176-94.174 94.176h-170.752c26.448 47.87 40.511 93.050 40.511 155.448v10.084c0 0.006 0 0.010 0 0.016-0.011 33.564-12.982 65.214-36.534 89.118-23.541 23.89-54.966 37.338-88.491 37.862-0.324 0.004-0.643 0.008-0.961 0.008-32.495 0-60.911-25.844-63.579-58.046-12.726-153.562-160.693-232.698-259.672-280.83v15.89c0 16.6-13.458 30.056-30.056 30.056h-256.482c-16.6 0-30.056-13.458-30.056-30.056v-512.959c0-16.6 13.458-30.054 30.056-30.054h192.36c36.844 0 68.792 21.276 84.258 52.178 107.048-46.501 200.048-52.554 306.848-52.554 18.244 0 36.904 0.176 56.092 0.358 21.22 0.199 43.156 0.404 66.156 0.404h95.033c51.928 0 94.174 42.251 94.174 94.18 0 17.459-4.773 33.82-13.090 47.855 27.056 16.566 45.153 46.399 45.153 80.384 0 17.459-4.779 33.826-13.090 47.861 27.056 16.566 45.147 46.393 45.147 80.378 0 24.457-9.375 46.757-24.713 63.516 16.009 16.89 25.862 39.674 25.862 64.727zM273.355 30.549c0-18.785-15.28-34.065-34.064-34.065h-34.064v98.185c0 16.6-13.458 30.060-30.056 30.060s-30.056-13.46-30.056-30.060v-98.185h-68.126v452.851h196.368v-418.786h-0.002zM848.828 321.485h62.97c18.785 0 34.065-15.28 34.065-34.059 0-18.785-15.28-34.065-34.065-34.065h-62.97c-16.6 0-30.054-13.46-30.054-30.060 0-16.594 13.454-30.054 30.054-30.054h30.908c18.785 0 34.065-15.28 34.065-34.065 0-18.779-15.28-34.059-34.065-34.059h-32.057c-16.6 0-30.060-13.46-30.060-30.060 0-16.594 13.46-30.054 30.060-30.054 18.785 0 34.065-15.28 34.065-34.065s-15.28-34.065-34.065-34.065h-95.033c-23.285 0-45.369-0.205-66.725-0.41-133.984-1.269-232.42-2.202-352.057 53.35v347.108h-0.002c3.128 1.512 6.338 3.062 9.612 4.64 52.25 25.192 123.808 59.692 185.336 111.946 75.323 63.972 117.125 139.962 124.236 225.858 0.085 1.020 2.048 2.898 3.658 2.898 0.011 0 0.023 0 0.034 0 36.312-0.568 65.855-30.586 65.855-66.914v-10.064c0-62.48-16.293-102.012-50.375-155.448h-47.809c-16.6 0-30.054-13.458-30.054-30.056 0-16.6 13.454-30.056 30.054-30.056h64.336c0.028 0 0.057 0 0.091 0h224.114c18.785 0 34.065-15.28 34.065-34.064s-15.28-34.066-34.065-34.066h-64.119c-16.6 0-30.054-13.454-30.054-30.054s13.454-30.060 30.054-30.060zM944.623 737.875h-64.125c-16.594 0-30.054-13.458-30.054-30.056s13.46-30.056 30.054-30.056h64.125c16.6 0 30.054 13.458 30.054 30.056s-13.454 30.056-30.054 30.056zM495.787 737.875h-64.12c-16.6 0-30.056-13.458-30.056-30.056s13.458-30.056 30.056-30.056h64.12c16.598 0 30.056 13.458 30.056 30.056s-13.458 30.056-30.056 30.056zM617.984 889.437l-32.063 55.53c-8.3 14.376-26.682 19.302-41.056 11-14.376-8.3-19.3-26.682-11-41.056l32.060-55.53c5.569-9.644 15.672-15.032 26.055-15.032 5.097 0 10.268 1.298 15.002 4.032 14.376 8.298 19.302 26.68 11.002 41.056zM831.397 955.966c-14.376 8.304-32.757 3.374-41.057-11l-32.057-55.53c-8.3-14.374-3.374-32.758 11.002-41.056 4.727-2.734 9.899-4.032 14.996-4.032 10.388 0 20.491 5.39 26.055 15.032l32.063 55.53c8.3 14.374 3.374 32.756-11.002 41.056z" />
<glyph unicode="&#xe90d;" glyph-name="like" d="M908.851 286.861c18.362 23.424 27.168 48.531 26.042 74.387-1.126 28.48-13.869 50.777-24.358 64.455 12.179 30.354 16.864 78.133-23.795 115.232-29.792 27.169-80.384 39.348-150.458 35.975-49.28-2.248-90.502-11.43-92.186-11.804h-0.186c-9.371-1.686-19.302-3.747-29.42-5.996-0.749 11.992 1.312 41.784 23.421 108.862 26.228 79.819 24.731 140.901-4.872 181.748-31.103 42.908-80.756 46.28-95.371 46.28-14.053 0-26.981-5.809-36.163-16.488-20.798-24.171-18.362-68.765-15.739-89.375-24.733-66.329-94.060-228.965-152.706-274.121-1.124-0.75-2.061-1.686-2.998-2.623-17.238-18.175-28.855-37.849-36.724-55.087-11.055 5.996-23.609 9.368-37.1 9.368h-114.295c-43.095 0-77.946-35.038-77.946-77.946v-304.474c0-43.098 35.038-77.946 77.946-77.946h114.295c16.676 0 32.228 5.248 44.969 14.24l44.031-5.248c6.746-0.934 126.662-16.115 249.764-13.677 22.297-1.69 43.282-2.624 62.768-2.624 33.542 0 62.771 2.624 87.13 7.872 57.331 12.179 96.493 36.538 116.352 72.32 15.181 27.36 15.181 54.528 12.742 71.763 37.286 33.728 43.846 71.014 42.534 97.248-0.749 15.174-4.122 28.102-7.68 37.658zM141.946 57.894c-15.177 0-27.356 12.371-27.356 27.36v304.661c0 15.177 12.367 27.356 27.356 27.356h114.295c15.177 0 27.356-12.367 27.356-27.356v-304.476c0-15.174-12.366-27.354-27.356-27.354h-114.295v-0.192zM860.883 308.787c-7.872-8.25-9.37-20.8-3.373-30.541 0-0.192 7.68-13.306 8.614-31.296 1.312-24.544-10.49-46.278-35.219-64.826-8.806-6.746-12.371-18.362-8.621-28.858 0-0.186 8.058-24.922-5.062-48.339-12.55-22.483-40.467-38.598-82.816-47.59-33.914-7.309-80.006-8.621-136.591-4.122-0.749 0-1.686 0-2.623 0-120.478-2.624-242.268 13.114-243.58 13.299h-0.188l-18.924 2.246c1.124 5.248 1.686 10.867 1.686 16.493v304.661c0 8.057-1.311 15.926-3.56 23.234 3.373 12.554 12.741 40.472 34.851 64.268 84.129 66.703 166.384 291.734 169.944 301.477 1.5 3.935 1.874 8.244 1.124 12.554-3.185 20.986-2.061 46.655 2.436 54.337 9.931-0.188 36.724-2.998 52.838-25.295 19.112-26.419 18.362-73.636-2.249-136.218-31.478-95.371-34.101-145.586-9.181-167.695 12.367-11.055 28.855-11.617 40.847-7.308 11.429 2.623 22.296 4.872 32.6 6.558 0.749 0.188 1.69 0.374 2.438 0.562 57.523 12.554 160.576 20.236 196.365-12.366 30.349-27.731 8.806-64.455 6.368-68.39-6.931-10.493-4.87-24.171 4.499-32.602 0.186-0.188 19.859-18.737 20.794-43.658 0.749-16.676-7.117-33.726-23.418-50.587z" />
<glyph unicode="&#xe90e;" glyph-name="dislike" d="M44.17 632.157c-20.985-26.767-31.050-55.462-29.765-85.012 1.285-32.548 15.846-58.031 27.838-73.663-13.919-34.69-19.272-89.295 27.195-131.694 34.048-31.049 91.865-44.969 171.951-41.116 56.318 2.573 103.428 13.062 105.356 13.491h0.214c10.707 1.926 22.056 4.282 33.62 6.854 0.856-13.702-1.499-47.75-26.767-124.415-29.979-91.219-28.266-161.030 5.567-207.712 35.547-49.037 92.293-52.89 108.996-52.89 16.060 0 30.835 6.637 41.328 18.842 23.77 27.629 20.986 78.592 17.988 102.144 28.266 75.808 107.496 261.677 174.518 313.283 1.286 0.856 2.362 1.927 3.43 2.998 19.699 20.771 32.973 43.256 41.971 62.956 12.634-6.852 26.982-10.707 42.4-10.707h130.618c49.254 0 89.082 40.044 89.082 89.081v347.971c0 49.252-40.038 89.081-89.082 89.081h-130.618c-19.059 0-36.832-5.996-51.398-16.274l-50.317 5.996c-7.712 1.071-144.758 18.416-285.446 15.632-25.482 1.927-49.466 2.998-71.736 2.998-38.33 0-71.736-2.998-99.574-8.994-65.526-13.919-110.28-41.757-132.979-82.657-17.345-31.264-17.345-62.314-14.561-82.014-42.613-38.545-50.108-81.158-48.609-111.137 0.856-17.345 4.711-32.12 8.78-43.041zM920.627 893.832c17.35 0 31.264-14.133 31.264-31.264v-348.186c0-17.345-14.131-31.264-31.264-31.264h-130.618c-17.35 0-31.264 14.133-31.264 31.264v347.972c0 17.345 14.131 31.264 31.264 31.264h130.618v0.214zM98.989 607.103c8.994 9.422 10.707 23.769 3.855 34.904 0 0.214-8.78 15.203-9.85 35.761-1.499 28.052 11.992 52.892 40.257 74.091 10.065 7.709 14.133 20.986 9.851 32.977 0 0.214-9.208 28.48 5.781 55.247 14.348 25.696 46.253 44.112 94.648 54.39 38.759 8.351 91.436 9.85 156.106 4.711 0.856 0 1.927 0 2.998 0 137.69 2.998 276.879-14.989 278.377-15.204h0.218l21.626-2.57c-1.286-5.996-1.926-12.42-1.926-18.844v-348.186c0-9.208 1.498-18.202 4.064-26.553-3.853-14.347-14.56-46.253-39.827-73.448-96.147-76.233-190.152-333.408-194.221-344.544-1.713-4.499-2.141-9.421-1.285-14.349 3.64-23.981 2.356-53.318-2.783-62.099-11.349 0.211-41.971 3.424-60.387 28.909-21.842 30.195-20.986 84.154 2.57 155.674 35.975 108.998 38.973 166.387 10.493 191.655-14.133 12.634-32.977 13.276-46.682 8.351-13.062-2.998-25.482-5.568-37.26-7.495-0.856-0.214-1.927-0.428-2.783-0.643-65.74-14.347-183.515-23.126-224.415 14.133-34.69 31.692-10.064 73.663-7.281 78.16 7.923 11.992 5.568 27.624-5.139 37.26-0.214 0.214-22.698 21.414-23.769 49.894-0.856 19.058 8.137 38.545 26.767 57.817z" />
<glyph unicode="&#xe90f;" glyph-name="next" d="M299.756-34.845l-58.319 58.324 424.501 424.52-424.501 424.522 58.319 58.319 482.843-482.841-482.843-482.844zM299.746-64l-87.478 87.479 424.501 424.521-424.501 424.522 87.478 87.478 512.023-512-512.023-512zM270.587 23.479l29.159-29.162 453.684 453.683-453.684 453.681-29.159-29.159 424.501-424.522-424.501-424.521z" />
<glyph unicode="&#xe910;" glyph-name="prev" d="M724.244 930.842l58.319-58.319-424.501-424.522 424.501-424.523-58.319-58.317-482.841 482.839 482.841 482.841zM724.254 960l87.478-87.478-424.501-424.522 424.501-424.521-87.478-87.479-512.020 512 512.020 512zM753.415 872.522l-29.161 29.159-453.681-453.681 453.681-453.683 29.161 29.162-424.504 424.521 424.504 424.522z" />
<glyph unicode="&#xe911;" glyph-name="down" d="M29.162 660.288l58.319 58.319 424.522-424.501 424.526 424.501 58.317-58.319-482.842-482.844-482.841 482.844zM0 660.272l87.478 87.477 424.522-424.501 424.521 424.501 87.479-87.477-512-512.019-512 512.019zM87.478 689.431l-29.159-29.159 453.681-453.68 453.683 453.68-29.162 29.159-424.521-424.501-424.522 424.501z" />
<glyph unicode="&#xe912;" glyph-name="up" d="M994.845 235.712l-58.324-58.318-424.52 424.501-424.522-424.501-58.319 58.318 482.841 482.841 482.844-482.841zM1024 235.728l-87.479-87.474-424.521 424.498-424.522-424.498-87.478 87.474 512 512.021 512-512.021zM936.521 206.57l29.162 29.158-453.683 453.682-453.681-453.682 29.159-29.158 424.522 424.5 424.521-424.5z" />
<glyph unicode="&#xe913;" glyph-name="plus-18" d="M323.932 273.626v278.007h-64.268v71.242h152.951v-349.249h-88.683zM745.907 532.682c0-30.39-16.442-57.293-43.84-72.243 38.355-15.939 62.272-49.322 62.272-88.181 0-62.774-55.802-102.633-142.984-102.633-87.189 0-142.988 39.36-142.988 101.135 0 39.859 25.907 73.74 66.261 89.679-29.394 16.444-48.326 44.34-48.326 74.73 0 55.805 48.827 91.174 124.554 91.174 76.724 0 125.051-36.369 125.051-93.661zM562.065 379.728c0-29.396 20.928-45.837 59.29-45.837 38.364 0 59.784 15.939 59.784 45.837 0 28.893-21.421 45.34-59.784 45.34-38.365 0-59.29-16.444-59.29-45.34zM571.036 527.7c0-24.916 17.935-38.86 50.319-38.86 32.386 0 50.319 13.947 50.319 38.86 0 25.9-17.933 40.351-50.319 40.351s-50.319-14.451-50.319-40.351zM911.968 583.447c14.746-43.515 22.221-89.028 22.221-135.448 0-232.76-189.363-422.124-422.128-422.124-232.763 0-422.132 189.363-422.132 422.124 0 232.765 189.366 422.125 422.129 422.125 46.426 0 91.94-7.473 135.45-22.223v93.939c-43.949 12.047-89.338 18.159-135.446 18.159-282.315 0-511.998-229.683-511.998-512.001 0-282.316 229.683-511.999 511.998-511.999s511.997 229.683 511.997 511.999c0 46.105-6.112 91.498-18.157 135.448h-93.933zM886.362 822.639v98.174h-70.598v-98.174h-97.581v-70.589h97.581v-98.171h70.598v98.171h98.163v70.589h-98.163z" />
<glyph unicode="&#xe914;" glyph-name="roi" d="M39.427 209.067c-4.551 0-8.42 1.365-11.605 4.096-2.731 3.186-4.096 7.054-4.096 11.605v445.781c0 5.006 1.365 8.875 4.096 11.605 3.186 3.186 7.054 4.779 11.605 4.779h166.571c52.338 0 93.298-12.288 122.88-36.864s44.373-60.075 44.373-106.496c0-34.589-8.647-63.033-25.941-85.333-16.839-22.301-40.733-37.774-71.68-46.421l105.131-181.589c1.365-2.731 2.048-5.234 2.048-7.509 0-3.641-1.593-6.827-4.779-9.557-2.731-2.731-5.917-4.096-9.557-4.096h-32.768c-6.827 0-12.288 1.593-16.384 4.779-3.641 3.186-7.054 7.737-10.24 13.653l-98.987 173.397h-119.467v-176.128c0-4.551-1.593-8.419-4.779-11.605-3.186-2.731-7.054-4.096-11.605-4.096h-34.816zM203.267 458.923c67.811 0 101.717 28.445 101.717 85.333s-33.906 85.333-101.717 85.333h-112.64v-170.667h112.64zM642.424 202.24c-59.62 0-105.813 15.474-138.581 46.421-32.313 31.403-49.38 78.507-51.2 141.312-0.455 13.653-0.683 32.995-0.683 58.027s0.227 44.146 0.683 57.344c1.82 61.44 19.569 108.089 53.248 139.947 33.678 32.313 79.189 48.469 136.533 48.469 56.886 0 102.174-16.157 135.85-48.469 33.676-31.858 51.425-78.507 53.248-139.947 0.908-26.397 1.365-45.511 1.365-57.344 0-11.378-0.457-30.72-1.365-58.027-1.823-62.805-19.115-109.909-51.883-141.312-32.311-30.947-78.049-46.421-137.215-46.421zM642.424 260.267c35.953 0 64.627 10.923 86.015 32.768s32.993 55.296 34.816 100.352c0.908 27.307 1.365 45.511 1.365 54.613 0 10.013-0.457 28.217-1.365 54.613-1.823 45.056-13.653 78.507-35.499 100.352-21.388 21.845-49.834 32.768-85.333 32.768-35.954 0-64.853-10.923-86.699-32.768-21.391-21.845-32.996-55.296-34.816-100.352-0.455-13.198-0.683-31.403-0.683-54.613 0-22.755 0.227-40.96 0.683-54.613 1.82-45.056 13.425-78.507 34.816-100.352 21.845-21.845 50.745-32.768 86.699-32.768zM948.094 209.067c-4.553 0-8.417 1.365-11.605 4.096-2.731 3.186-4.096 7.054-4.096 11.605v446.464c0 4.551 1.365 8.192 4.096 10.923 3.188 3.186 7.052 4.779 11.605 4.779h36.181c4.553 0 8.192-1.593 10.923-4.779 3.188-2.731 4.779-6.371 4.779-10.923v-446.464c0-4.551-1.591-8.419-4.779-11.605-2.731-2.731-6.369-4.096-10.923-4.096h-36.181z" />
<glyph unicode="&#xe915;" glyph-name="happy" d="M272.588 308.082c3.58-4.542 89.374-111.246 239.421-111.246s235.839 106.704 239.42 111.246l-62.84 49.51c-0.635-0.807-64.916-80.754-176.58-80.754-110.294 0-174.050 77.613-176.709 80.917l0.13-0.163-62.841-49.51zM874.041 810.040c-96.708 96.702-225.28 149.96-362.041 149.96s-265.334-53.258-362.040-149.96c-96.702-96.706-149.96-225.279-149.96-362.040s53.258-265.336 149.96-362.041c96.706-96.702 225.279-149.959 362.040-149.959s265.333 53.257 362.041 149.959c96.702 96.705 149.959 225.28 149.959 362.041s-53.257 265.334-149.959 362.040zM512 15.998c-238.206 0-432 193.795-432 432.002s193.794 432 432 432c238.206 0 432.002-193.794 432.002-432s-193.795-432.002-432.002-432.002zM335.998 535.76c35.349 0 64 28.654 64 64s-28.651 64.001-64 64.001c-35.345 0-63.998-28.655-63.998-64.001s28.654-64 63.998-64zM688.002 535.76c35.346 0 64 28.654 64 64s-28.654 64.001-64 64.001c-35.349 0-64-28.655-64-64.001s28.651-64 64-64z" />
<glyph unicode="&#xe916;" glyph-name="sad" d="M751.417 246.513c-3.581 4.542-89.374 111.246-239.42 111.246s-235.841-106.704-239.421-111.246l62.841-49.51c0.635 0.807 64.916 80.754 176.58 80.754 110.294 0 174.047-77.613 176.709-80.917l-0.13 0.163 62.84 49.51zM874.041 810.040c-96.708 96.702-225.28 149.96-362.041 149.96s-265.334-53.258-362.040-149.96c-96.702-96.706-149.96-225.279-149.96-362.040s53.258-265.336 149.96-362.041c96.706-96.702 225.279-149.959 362.040-149.959s265.333 53.257 362.041 149.959c96.702 96.705 149.959 225.28 149.959 362.041s-53.257 265.334-149.959 362.040zM512 15.998c-238.206 0-432 193.795-432 432.002s193.794 432 432 432c238.206 0 432.002-193.794 432.002-432s-193.795-432.002-432.002-432.002zM335.998 535.76c35.349 0 64 28.654 64 64s-28.651 64.001-64 64.001c-35.345 0-63.998-28.655-63.998-64.001s28.654-64 63.998-64zM688.002 535.76c35.346 0 64 28.654 64 64s-28.654 64.001-64 64.001c-35.349 0-64-28.655-64-64.001s28.651-64 64-64z" />
<glyph unicode="&#xe917;" glyph-name="smile" d="M874.041 810.040c-96.708 96.702-225.28 149.96-362.041 149.96s-265.334-53.258-362.040-149.96c-96.702-96.706-149.96-225.279-149.96-362.040s53.258-265.336 149.96-362.041c96.706-96.702 225.279-149.959 362.040-149.959s265.333 53.257 362.041 149.959c96.702 96.705 149.959 225.28 149.959 362.041s-53.257 265.334-149.959 362.040zM512 15.998c-238.206 0-432 193.795-432 432.002s193.794 432 432 432c238.206 0 432.002-193.794 432.002-432s-193.795-432.002-432.002-432.002zM335.998 535.757c35.349 0 64 28.654 64 64s-28.651 64.001-64 64.001c-35.345 0-63.998-28.655-63.998-64.001s28.654-64 63.998-64zM688.002 535.757c35.346 0 64 28.654 64 64s-28.654 64.001-64 64.001c-35.349 0-64-28.655-64-64.001s28.651-64 64-64zM301.176 357.647h421.647v-84.329h-421.647v84.329z" />
<glyph unicode="&#xe918;" glyph-name="telegram" d="M246.391 376.525l127.359-318.379 165.805 165.808 284.282-225.957 200.164 900.003-1024-426.531 246.391-94.944zM731.392 639.781l-313.431-285.881-39.039-147.132-72.117 180.326 424.587 252.686z" />
<glyph unicode="&#xe919;" glyph-name="trash" d="M707.187 606.947l-80.153 2.94-17.378-474.565 80.155-2.931 17.376 474.556zM552.177 608.414h-80.208v-474.571h80.208v474.571zM414.472 135.328l-17.378 474.57-80.156-2.942 17.38-474.566 80.154 2.938zM34.781 806.262v-80.208h83.578l66.304-753.471c1.818-20.704 19.158-36.589 39.944-36.589h573.479c20.787 0 38.144 15.898 39.942 36.602l66.31 753.459h84.928v80.208h-954.486zM761.35 16.205h-500.019l-62.456 709.849h624.945l-62.47-709.849zM642.995 960h-262.015c-36.856 0-66.84-29.984-66.84-66.84v-126.998h80.207v113.63h235.279v-113.63h80.209v126.998c0 36.856-29.984 66.84-66.842 66.84z" />
<glyph unicode="&#xe91a;" glyph-name="twitter" d="M320.040 31.79c386.441 0 597.76 320.148 597.76 597.757 0 9.094-0.188 18.148-0.597 27.156 41.017 29.656 76.675 66.664 104.801 108.789-37.643-16.734-78.16-27.992-120.65-33.078 43.378 26.016 76.681 67.156 92.382 116.204-40.59-24.063-85.544-41.547-133.404-50.992-38.337 40.836-92.922 66.375-153.361 66.375-116.014 0-210.101-94.086-210.101-210.063 0-16.492 1.844-32.523 5.445-47.907-174.61 8.789-329.446 92.383-433.056 219.509-18.039-31.047-28.445-67.118-28.445-105.602 0-72.883 37.094-137.235 93.492-174.875-34.469 1.062-66.844 10.523-95.149 26.273-0.031-0.882-0.031-1.742-0.031-2.679 0-101.75 72.414-186.704 168.555-205.955-17.657-4.801-36.235-7.39-55.399-7.39-13.516 0-26.687 1.331-39.492 3.789 26.75-83.473 104.313-144.219 196.266-145.92-71.906-56.36-162.492-89.93-260.938-89.93-16.938 0-33.672 0.967-50.117 2.907 92.977-59.597 203.391-94.379 322.048-94.379z" />
<glyph unicode="&#xe91b;" glyph-name="user" d="M512 960c-282.312 0-512-229.688-512-512s229.688-512 512-512c282.313 0 512 229.687 512 512s-229.687 512-512 512zM512 895.999c247.030 0 448-200.969 448-447.999 0-102.915-35.239-197.547-93.798-273.268-224.611 106.298-483.796 106.298-708.404 0-58.558 75.721-93.797 170.353-93.797 273.268 0 247.030 200.969 447.999 447.999 447.999zM202.691 124.696c197.447 87.456 421.171 87.456 618.618 0-80.497-77.042-189.348-124.699-309.309-124.699s-228.813 47.657-309.309 124.699zM512 320c105.875 0 192 86.122 192 192 0 105.875-86.125 192-192 192s-192.001-86.125-192.001-192c0-105.878 86.126-192 192.001-192zM512 639.999c70.595 0 128-57.408 128-127.999 0-70.595-57.409-128-128-128-70.595 0-128 57.405-128 128 0 70.591 57.405 127.999 128 127.999z" />
<glyph unicode="&#xe91c;" glyph-name="right-arr" d="M743.155 728.844l-45.613-45.614 202.976-202.975h-900.518v-64.509h900.518l-202.976-202.973 45.613-45.615 280.845 280.844-280.845 280.842z" />
<glyph unicode="&#xe91d;" glyph-name="star" d="M1023.1 564.506c-2.165 6.636-7.899 11.475-14.811 12.483l-331.575 48.187-148.284 300.453c-3.079 6.269-9.457 10.228-16.423 10.228s-13.362-3.959-16.423-10.228l-148.302-300.472-331.576-48.187c-6.91-1.008-12.629-5.829-14.81-12.483-2.145-6.617-0.367-13.912 4.637-18.769l239.948-233.881-56.656-330.255c-1.173-6.875 1.649-13.824 7.276-17.927 5.664-4.14 13.161-4.674 19.301-1.39l296.604 155.904 296.565-155.904c2.677-1.412 5.632-2.114 8.543-2.114 3.796 0 7.57 1.178 10.781 3.504 5.639 4.103 8.463 11.052 7.27 17.927l-56.635 330.237 239.945 233.899c4.988 4.894 6.788 12.171 4.623 18.787z" />
<glyph unicode="&#xe91e;" glyph-name="calendar" d="M896 832h-42.664v85.336c0 23.547-19.12 42.664-42.672 42.664h-42.664c-23.552 0-42.664-19.117-42.664-42.664v-85.336h-426.672v85.336c0 23.547-19.109 42.664-42.664 42.664h-42.664c-23.554 0-42.672-19.117-42.672-42.664v-85.336h-42.664c-70.57 0-128-57.43-128-128v-640c0-70.568 57.43-128 128-128h768c70.568 0 128 57.432 128 128v640c0 70.57-57.432 128-128 128zM938.664 64c0-23.508-19.156-42.664-42.664-42.664h-768c-23.508 0-42.664 19.156-42.664 42.664v467.625h853.328v-467.625z" />
<glyph unicode="&#xe91f;" glyph-name="search" d="M1008.429 27.296l-252.429 253.478c64.902 74.489 100.467 168.214 100.467 265.786 0 227.967-192.109 413.439-428.235 413.439-236.124 0-428.232-185.473-428.232-413.439 0-227.969 192.109-413.441 428.232-413.441 88.644 0 173.117 25.811 245.342 74.816l254.349-255.398c10.63-10.662 24.928-16.538 40.256-16.538 14.502 0 28.262 5.338 38.707 15.046 22.195 20.614 22.899 54.81 1.542 76.25zM428.232 852.146c174.532 0 316.516-137.082 316.516-305.585s-141.984-305.588-316.516-305.588c-174.532 0-316.52 137.084-316.52 305.588s141.987 305.585 316.52 305.585z" />
<glyph unicode="&#xe920;" glyph-name="user-1" d="M512 960c-282.312 0-512-229.688-512-512s229.688-512 512-512c282.313 0 512 229.687 512 512s-229.687 512-512 512zM512 895.999c247.030 0 448-200.969 448-447.999 0-102.915-35.239-197.547-93.798-273.268-224.611 106.298-483.796 106.298-708.404 0-58.558 75.721-93.797 170.353-93.797 273.268 0 247.030 200.969 447.999 447.999 447.999zM202.691 124.696c197.447 87.456 421.171 87.456 618.618 0-80.497-77.042-189.348-124.699-309.309-124.699s-228.813 47.657-309.309 124.699zM512 320c105.875 0 192 86.122 192 192 0 105.875-86.125 192-192 192s-192.001-86.125-192.001-192c0-105.878 86.126-192 192.001-192zM512 639.999c70.595 0 128-57.408 128-127.999 0-70.595-57.409-128-128-128-70.595 0-128 57.405-128 128 0 70.591 57.405 127.999 128 127.999z" />
<glyph unicode="&#xe921;" glyph-name="google" d="M512 550.4v-204.8h289.69c-42.291-119.194-156.16-204.8-289.69-204.8-169.37 0-307.2 137.83-307.2 307.2s137.83 307.2 307.2 307.2c73.421 0 144.077-26.317 198.963-74.138l134.554 154.419c-92.16 80.282-210.534 124.518-333.517 124.518-282.317 0-512-229.683-512-512s229.683-512 512-512c282.317 0 512 229.683 512 512v102.4h-512z" />
<glyph unicode="&#xe922;" glyph-name="input-ok" d="M738.326 610.461c15.631-15.626 15.631-40.953 0-56.571l-268.341-268.352c-15.626-15.617-40.945-15.617-56.57 0l-127.743 127.751c-15.625 15.617-15.625 40.945 0 56.562 15.617 15.625 40.945 15.625 56.563 0l99.46-99.461 240.063 240.071c15.625 15.617 40.953 15.617 56.568 0zM1024 448c0-283.004-229.032-512-512-512-283.008 0-512 229.032-512 512 0 283.008 229.031 512 512 512 283.004 0 512-229.031 512-512zM943.996 448c0 238.789-193.236 432-431.996 432-238.789 0-432-193.242-432-432 0-238.789 193.242-431.996 432-431.996 238.789 0 431.996 193.236 431.996 431.996z" />
<glyph unicode="&#xe923;" glyph-name="logout" d="M510.3 22.755h-382.726c-23.474 0-42.525 19.054-42.525 42.525v765.447c0 23.474 19.052 42.525 42.525 42.525h382.726c23.516 0 42.524 19.008 42.524 42.524s-19.008 42.528-42.524 42.528h-382.726c-70.336 0-127.574-57.24-127.574-127.576v-765.447c0-70.334 57.238-127.576 127.574-127.576h382.726c23.516 0 42.524 19.010 42.524 42.525s-19.008 42.525-42.524 42.525zM1011.324 478.286l-258.553 255.149c-16.669 16.5-43.629 16.286-60.129-0.426s-16.33-43.63 0.426-60.13l184.771-182.346h-495.118c-23.516 0-42.525-19.008-42.525-42.524s19.008-42.526 42.525-42.526h495.118l-184.771-182.347c-16.753-16.501-16.881-43.418-0.426-60.131 8.334-8.419 19.306-12.668 30.278-12.668 10.805 0 21.601 4.081 29.851 12.244l258.553 255.152c8.082 7.994 12.676 18.882 12.676 30.277 0 11.392-4.557 22.236-12.676 30.275z" />
<glyph unicode="&#xe924;" glyph-name="rating" horiz-adv-x="1103" d="M268.197 495.539h-232.236c-19.861 0-35.961-16.103-35.961-35.961v-464.47c0-19.858 16.1-35.958 35.961-35.958h232.236c19.859 0 35.961 16.1 35.961 35.958v464.47c-0.002 19.858-16.103 35.961-35.961 35.961zM667.502 960h-232.234c-19.859 0-35.961-16.1-35.961-35.961v-928.939c0-19.858 16.1-35.958 35.961-35.958h232.236c19.859 0 35.961 16.093 35.961 35.958v928.941c-0.002 19.858-16.102 35.958-35.963 35.958zM1066.811 727.769h-232.235c-19.858 0-35.958-16.1-35.958-35.961v-696.708c0-19.858 16.1-35.958 35.958-35.958h232.235c19.866 0 35.966 16.1 35.966 35.958v696.708c-0.008 19.859-16.1 35.961-35.966 35.961z" />
<glyph unicode="&#xe925;" glyph-name="picture" d="M0 870v-843.999h1024v843.999h-1024zM964.002 85.999h-904.002v724.001h904.002v-724.001zM512 630c-49.626 0-90-40.374-90-90 0-49.628 40.375-89.999 90-89.999s90.001 40.371 90.001 89.999c0 49.626-40.375 90-90.001 90zM512 509.999c-16.542 0-29.999 13.457-29.999 30.001 0 16.542 13.457 30 29.999 30s29.999-13.458 29.999-30c0-16.544-13.457-30.001-29.999-30.001zM120 750v-603.999h784v603.999h-784zM843.998 205.999h-663.998v73.971l151 100.945 181-121.003 181.001 121.003 150.997-100.945v-73.971zM843.998 352.141l-150.997 100.945-181.001-120.998-181 120.998-151-100.945v337.859h663.998v-337.859z" />
<glyph unicode="&#xe926;" glyph-name="write" d="M989.864-16.501h-614.409c-18.842 0-34.134 15.294-34.134 34.136s15.292 34.136 34.134 34.136h614.409c18.842 0 34.128-15.294 34.128-34.136s-15.287-34.136-34.128-34.136zM34.124-16.494c-8.967 0-17.659 3.496-24.125 10.006-8.375 8.375-11.783 20.436-9.1 31.949l49.609 210.496c1.458 6.183 4.592 11.834 9.1 16.292l627.557 627.557c38.6 38.642 106.135 38.734 144.821 0l64.358-64.35c19.339-19.342 29.989-45.059 29.989-72.409 0-27.359-10.65-53.117-29.989-72.409l-627.567-627.512c-4.5-4.513-10.15-7.651-16.292-9.106l-210.494-49.605c-2.633-0.644-5.275-0.907-7.867-0.907zM114.725 210.871l-34.725-147.361 147.368 34.728 620.679 620.682c6.466 6.467 10.021 15.017 10.021 24.125 0 9.1-3.555 17.7-10.021 24.117l-64.351 64.401c-12.88 12.883-35.408 12.883-48.238 0l-620.733-620.692zM244.61 67.24v0zM734.486 522.98c-8.73 0-17.472 3.325-24.114 10.017l-160.935 160.927c-13.333 13.334-13.333 34.951 0 48.284 13.342 13.342 34.959 13.342 48.292 0l160.923-160.927c13.334-13.334 13.334-34.951 0-48.284-6.685-6.692-15.419-10.017-24.166-10.017z" />
<glyph unicode="&#xea9d;" glyph-name="youtube" d="M1013.8 652.8c0 0-10 70.6-40.8 101.6-39 40.8-82.6 41-102.6 43.4-143.2 10.4-358.2 10.4-358.2 10.4h-0.4c0 0-215 0-358.2-10.4-20-2.4-63.6-2.6-102.6-43.4-30.8-31-40.6-101.6-40.6-101.6s-10.2-82.8-10.2-165.8v-77.6c0-82.8 10.2-165.8 10.2-165.8s10-70.6 40.6-101.6c39-40.8 90.2-39.4 113-43.8 82-7.8 348.2-10.2 348.2-10.2s215.2 0.4 358.4 10.6c20 2.4 63.6 2.6 102.6 43.4 30.8 31 40.8 101.6 40.8 101.6s10.2 82.8 10.2 165.8v77.6c-0.2 82.8-10.4 165.8-10.4 165.8zM406.2 315.2v287.8l276.6-144.4-276.6-143.4z" />
<glyph unicode="" glyph-name="youtube" d="M1013.8 652.8c0 0-10 70.6-40.8 101.6-39 40.8-82.6 41-102.6 43.4-143.2 10.4-358.2 10.4-358.2 10.4h-0.4c0 0-215 0-358.2-10.4-20-2.4-63.6-2.6-102.6-43.4-30.8-31-40.6-101.6-40.6-101.6s-10.2-82.8-10.2-165.8v-77.6c0-82.8 10.2-165.8 10.2-165.8s10-70.6 40.6-101.6c39-40.8 90.2-39.4 113-43.8 82-7.8 348.2-10.2 348.2-10.2s215.2 0.4 358.4 10.6c20 2.4 63.6 2.6 102.6 43.4 30.8 31 40.8 101.6 40.8 101.6s10.2 82.8 10.2 165.8v77.6c-0.2 82.8-10.4 165.8-10.4 165.8zM406.2 315.2v287.8l276.6-144.4-276.6-143.4z" />
<glyph unicode="youtube" glyph-name="youtube" d="M1013.8 652.8c0 0-10 70.6-40.8 101.6-39 40.8-82.6 41-102.6 43.4-143.2 10.4-358.2 10.4-358.2 10.4h-0.4c0 0-215 0-358.2-10.4-20-2.4-63.6-2.6-102.6-43.4-30.8-31-40.6-101.6-40.6-101.6s-10.2-82.8-10.2-165.8v-77.6c0-82.8 10.2-165.8 10.2-165.8s10-70.6 40.6-101.6c39-40.8 90.2-39.4 113-43.8 82-7.8 348.2-10.2 348.2-10.2s215.2 0.4 358.4 10.6c20 2.4 63.6 2.6 102.6 43.4 30.8 31 40.8 101.6 40.8 101.6s10.2 82.8 10.2 165.8v77.6c-0.2 82.8-10.4 165.8-10.4 165.8zM406.2 315.2v287.8l276.6-144.4-276.6-143.4z" />
<glyph unicode="brand21" glyph-name="youtube" d="M1013.8 652.8c0 0-10 70.6-40.8 101.6-39 40.8-82.6 41-102.6 43.4-143.2 10.4-358.2 10.4-358.2 10.4h-0.4c0 0-215 0-358.2-10.4-20-2.4-63.6-2.6-102.6-43.4-30.8-31-40.6-101.6-40.6-101.6s-10.2-82.8-10.2-165.8v-77.6c0-82.8 10.2-165.8 10.2-165.8s10-70.6 40.6-101.6c39-40.8 90.2-39.4 113-43.8 82-7.8 348.2-10.2 348.2-10.2s215.2 0.4 358.4 10.6c20 2.4 63.6 2.6 102.6 43.4 30.8 31 40.8 101.6 40.8 101.6s10.2 82.8 10.2 165.8v77.6c-0.2 82.8-10.4 165.8-10.4 165.8zM406.2 315.2v287.8l276.6-144.4-276.6-143.4z" />
</font>
</defs>
</svg>
